<mxfile host="app.diagrams.net" modified="2024-04-19T08:41:11.813Z" agent="Mozilla/5.0 (X11; Ubuntu; Linux x86_64; rv:123.0) Gecko/20100101 Firefox/123.0" version="24.2.5" etag="giC8ep8pcBbA15NLSjJG" type="github">
  <diagram name="Page-1" id="ZFclVennC4Um-gqizl1E">
    <mxGraphModel>
      <root>
        <mxCell id="0" />
        <mxCell id="1" parent="0" />
      </root>
    </mxGraphModel>
  </diagram>
</mxfile>
